<mxfile host="app.diagrams.net" modified="2020-12-17T08:10:30.181Z" agent="5.0 (Windows NT 10.0; Win64; x64) AppleWebKit/537.36 (KHTML, like Gecko) Chrome/87.0.4280.88 Safari/537.36" etag="IleESFXo8ucNwM4OLzIf" version="14.0.4" type="github">
  <diagram id="C5RBs43oDa-KdzZeNtuy" name="Page-1">
    <mxGraphModel dx="1422" dy="762" grid="1" gridSize="10" guides="1" tooltips="1" connect="1" arrows="1" fold="1" page="1" pageScale="1" pageWidth="827" pageHeight="1169" math="0" shadow="0">
      <root>
        <mxCell id="WIyWlLk6GJQsqaUBKTNV-0" />
        <mxCell id="WIyWlLk6GJQsqaUBKTNV-1" parent="WIyWlLk6GJQsqaUBKTNV-0" />
        <mxCell id="WIyWlLk6GJQsqaUBKTNV-2" value="" style="rounded=0;html=1;jettySize=auto;orthogonalLoop=1;fontSize=11;endArrow=block;endFill=0;endSize=8;strokeWidth=1;shadow=0;labelBackgroundColor=none;edgeStyle=orthogonalEdgeStyle;entryX=0.5;entryY=0;entryDx=0;entryDy=0;" parent="WIyWlLk6GJQsqaUBKTNV-1" source="WIyWlLk6GJQsqaUBKTNV-3" target="sDezlNc97pLA1YF2Lauu-0" edge="1">
          <mxGeometry relative="1" as="geometry" />
        </mxCell>
        <mxCell id="WIyWlLk6GJQsqaUBKTNV-3" value="Start" style="rounded=1;whiteSpace=wrap;html=1;fontSize=12;glass=0;strokeWidth=1;shadow=0;" parent="WIyWlLk6GJQsqaUBKTNV-1" vertex="1">
          <mxGeometry x="360" y="80" width="120" height="40" as="geometry" />
        </mxCell>
        <mxCell id="WIyWlLk6GJQsqaUBKTNV-5" value="No" style="edgeStyle=orthogonalEdgeStyle;rounded=0;html=1;jettySize=auto;orthogonalLoop=1;fontSize=11;endArrow=block;endFill=0;endSize=8;strokeWidth=1;shadow=0;labelBackgroundColor=none;entryX=0.5;entryY=0;entryDx=0;entryDy=0;" parent="WIyWlLk6GJQsqaUBKTNV-1" source="WIyWlLk6GJQsqaUBKTNV-11" target="sDezlNc97pLA1YF2Lauu-6" edge="1">
          <mxGeometry y="10" relative="1" as="geometry">
            <mxPoint as="offset" />
            <mxPoint x="150" y="180" as="sourcePoint" />
            <mxPoint x="110" y="290" as="targetPoint" />
            <Array as="points">
              <mxPoint x="420" y="640" />
              <mxPoint x="490" y="640" />
            </Array>
          </mxGeometry>
        </mxCell>
        <mxCell id="WIyWlLk6GJQsqaUBKTNV-6" value="B&amp;lt;1" style="rhombus;whiteSpace=wrap;html=1;shadow=0;fontFamily=Helvetica;fontSize=12;align=center;strokeWidth=1;spacing=6;spacingTop=-4;" parent="WIyWlLk6GJQsqaUBKTNV-1" vertex="1">
          <mxGeometry x="370" y="300" width="100" height="80" as="geometry" />
        </mxCell>
        <mxCell id="WIyWlLk6GJQsqaUBKTNV-7" value="c++" style="rounded=1;whiteSpace=wrap;html=1;fontSize=12;glass=0;strokeWidth=1;shadow=0;" parent="WIyWlLk6GJQsqaUBKTNV-1" vertex="1">
          <mxGeometry x="630" y="320" width="120" height="40" as="geometry" />
        </mxCell>
        <mxCell id="WIyWlLk6GJQsqaUBKTNV-8" value="No" style="rounded=0;html=1;jettySize=auto;orthogonalLoop=1;fontSize=11;endArrow=block;endFill=0;endSize=8;strokeWidth=1;shadow=0;labelBackgroundColor=none;edgeStyle=orthogonalEdgeStyle;" parent="WIyWlLk6GJQsqaUBKTNV-1" source="WIyWlLk6GJQsqaUBKTNV-10" target="WIyWlLk6GJQsqaUBKTNV-11" edge="1">
          <mxGeometry x="0.3333" y="20" relative="1" as="geometry">
            <mxPoint as="offset" />
          </mxGeometry>
        </mxCell>
        <mxCell id="WIyWlLk6GJQsqaUBKTNV-9" value="Yes" style="edgeStyle=orthogonalEdgeStyle;rounded=0;html=1;jettySize=auto;orthogonalLoop=1;fontSize=11;endArrow=block;endFill=0;endSize=8;strokeWidth=1;shadow=0;labelBackgroundColor=none;" parent="WIyWlLk6GJQsqaUBKTNV-1" source="WIyWlLk6GJQsqaUBKTNV-10" target="WIyWlLk6GJQsqaUBKTNV-12" edge="1">
          <mxGeometry y="10" relative="1" as="geometry">
            <mxPoint as="offset" />
          </mxGeometry>
        </mxCell>
        <mxCell id="WIyWlLk6GJQsqaUBKTNV-10" value="A&amp;gt;B" style="rhombus;whiteSpace=wrap;html=1;shadow=0;fontFamily=Helvetica;fontSize=12;align=center;strokeWidth=1;spacing=6;spacingTop=-4;" parent="WIyWlLk6GJQsqaUBKTNV-1" vertex="1">
          <mxGeometry x="370" y="450" width="100" height="80" as="geometry" />
        </mxCell>
        <mxCell id="WIyWlLk6GJQsqaUBKTNV-11" value="C==3" style="rounded=1;whiteSpace=wrap;html=1;fontSize=12;glass=0;strokeWidth=1;shadow=0;" parent="WIyWlLk6GJQsqaUBKTNV-1" vertex="1">
          <mxGeometry x="360" y="570" width="120" height="40" as="geometry" />
        </mxCell>
        <mxCell id="WIyWlLk6GJQsqaUBKTNV-12" value="B=A" style="rounded=1;whiteSpace=wrap;html=1;fontSize=12;glass=0;strokeWidth=1;shadow=0;" parent="WIyWlLk6GJQsqaUBKTNV-1" vertex="1">
          <mxGeometry x="570" y="470" width="120" height="40" as="geometry" />
        </mxCell>
        <mxCell id="sDezlNc97pLA1YF2Lauu-0" value="A&amp;lt;3" style="rounded=0;whiteSpace=wrap;html=1;" vertex="1" parent="WIyWlLk6GJQsqaUBKTNV-1">
          <mxGeometry x="360" y="180" width="120" height="60" as="geometry" />
        </mxCell>
        <mxCell id="sDezlNc97pLA1YF2Lauu-1" value="" style="rounded=0;html=1;jettySize=auto;orthogonalLoop=1;fontSize=11;endArrow=block;endFill=0;endSize=8;strokeWidth=1;shadow=0;labelBackgroundColor=none;edgeStyle=orthogonalEdgeStyle;exitX=0.5;exitY=1;exitDx=0;exitDy=0;entryX=0.5;entryY=0;entryDx=0;entryDy=0;" edge="1" parent="WIyWlLk6GJQsqaUBKTNV-1" source="sDezlNc97pLA1YF2Lauu-0" target="WIyWlLk6GJQsqaUBKTNV-6">
          <mxGeometry relative="1" as="geometry">
            <mxPoint x="370" y="110" as="sourcePoint" />
            <mxPoint x="260" y="190" as="targetPoint" />
            <Array as="points">
              <mxPoint x="420" y="300" />
              <mxPoint x="420" y="300" />
            </Array>
          </mxGeometry>
        </mxCell>
        <mxCell id="sDezlNc97pLA1YF2Lauu-2" value="Yes" style="rounded=0;html=1;jettySize=auto;orthogonalLoop=1;fontSize=11;endArrow=block;endFill=0;endSize=8;strokeWidth=1;shadow=0;labelBackgroundColor=none;edgeStyle=orthogonalEdgeStyle;entryX=0;entryY=0.5;entryDx=0;entryDy=0;" edge="1" parent="WIyWlLk6GJQsqaUBKTNV-1" target="WIyWlLk6GJQsqaUBKTNV-7">
          <mxGeometry y="20" relative="1" as="geometry">
            <mxPoint as="offset" />
            <mxPoint x="470" y="340" as="sourcePoint" />
            <mxPoint x="510" y="390" as="targetPoint" />
          </mxGeometry>
        </mxCell>
        <mxCell id="sDezlNc97pLA1YF2Lauu-3" value="No" style="edgeStyle=orthogonalEdgeStyle;rounded=0;html=1;jettySize=auto;orthogonalLoop=1;fontSize=11;endArrow=block;endFill=0;endSize=8;strokeWidth=1;shadow=0;labelBackgroundColor=none;exitX=0.5;exitY=1;exitDx=0;exitDy=0;entryX=0.5;entryY=0;entryDx=0;entryDy=0;" edge="1" parent="WIyWlLk6GJQsqaUBKTNV-1" source="WIyWlLk6GJQsqaUBKTNV-6" target="WIyWlLk6GJQsqaUBKTNV-10">
          <mxGeometry y="10" relative="1" as="geometry">
            <mxPoint as="offset" />
            <mxPoint x="290" y="360" as="sourcePoint" />
            <mxPoint x="250" y="470" as="targetPoint" />
            <Array as="points">
              <mxPoint x="420" y="450" />
              <mxPoint x="420" y="450" />
            </Array>
          </mxGeometry>
        </mxCell>
        <mxCell id="sDezlNc97pLA1YF2Lauu-4" value="c++" style="rhombus;whiteSpace=wrap;html=1;" vertex="1" parent="WIyWlLk6GJQsqaUBKTNV-1">
          <mxGeometry x="290" y="670" width="80" height="80" as="geometry" />
        </mxCell>
        <mxCell id="sDezlNc97pLA1YF2Lauu-6" value="a++" style="rhombus;whiteSpace=wrap;html=1;" vertex="1" parent="WIyWlLk6GJQsqaUBKTNV-1">
          <mxGeometry x="450" y="670" width="80" height="80" as="geometry" />
        </mxCell>
        <mxCell id="sDezlNc97pLA1YF2Lauu-7" value="Yes" style="rounded=0;html=1;jettySize=auto;orthogonalLoop=1;fontSize=11;endArrow=block;endFill=0;endSize=8;strokeWidth=1;shadow=0;labelBackgroundColor=none;edgeStyle=orthogonalEdgeStyle;entryX=0.5;entryY=0;entryDx=0;entryDy=0;" edge="1" parent="WIyWlLk6GJQsqaUBKTNV-1" source="WIyWlLk6GJQsqaUBKTNV-11" target="sDezlNc97pLA1YF2Lauu-4">
          <mxGeometry y="20" relative="1" as="geometry">
            <mxPoint as="offset" />
            <mxPoint x="480" y="350" as="sourcePoint" />
            <mxPoint x="640" y="350" as="targetPoint" />
          </mxGeometry>
        </mxCell>
      </root>
    </mxGraphModel>
  </diagram>
</mxfile>
